<?xml version="1.0" encoding="utf-8"?>
<!-- Generator: Adobe Illustrator 28.2.0, SVG Export Plug-In . SVG Version: 6.00 Build 0)  -->
<svg version="1.1" id="Capa_1" xmlns="http://www.w3.org/2000/svg" xmlns:xlink="http://www.w3.org/1999/xlink" x="0px" y="0px"
	 viewBox="0 0 1080 1080" style="enable-background:new 0 0 1080 1080;" xml:space="preserve">
<style type="text/css">
	.st0{fill:#CEC8C0;}
	.st1{fill:#559361;}
	.st2{fill:#FF0000;}
</style>
<g>
	<path class="st0" d="M971.32,707.02c-6.68-1.03-8.18,4.48-10.62,7.83C917.44,774.2,861.54,820.36,801,859.93
		c-77.1,50.39-164.61,60.8-254.73,54.03c-80.09-6.02-158.29-27.55-238.93-29.4c-37.11-0.85-74.14-2.81-110.96-8.42
		c-75.96-11.56-129.13-51.65-156.53-123.92c-9.3-24.53-17.05-49.68-24.61-74.82c-7.46-24.81-3.67-27.97,21.83-26.75
		c77.82,3.71,148.7,30.39,217.94,63.43c68.11,32.51,131.58,74.98,203.58,98.94c122.64,40.81,241.73,36.62,353.26-35.58
		c19.45-12.59,37.14-27.8,52.91-45.94c-7.42-4.89-11.1-0.8-14.8,1.28c-84.91,47.93-176.79,58.98-272.16,51.49
		c-87.35-6.86-165.33-41.91-242.11-80.59c-62.75-31.6-126.22-61.27-196.38-73.12c-31.99-5.4-64.12-8.98-96.54-10.29
		c-8.44-0.34-17.31,1.68-27.35-3.57c6.36-5.95,13.55-6.43,20.08-8.22c108.36-29.66,218.48-49.37,330.74-54.93
		c66.83-3.31,133.52,3.92,200.16,8.41c113.85,7.68,225.88,32.17,340.03,37.33c45.98,2.08,91.78,0.99,137.35-6
		c20.45-3.14,26.81,2.06,23.61,20.56c-31,179.4-120.93,321.02-285.29,401.74c-198.43,97.46-394.11,86.07-577.13-46.09
		c-5.31-3.84-12.33-6.97-10.97-15.45c1.47-9.17,9.38-10.3,16.43-12.65c73.84-24.58,147.93-14.8,222.26-2.5
		c64.5,10.67,128.89,24.34,194.98,15.81c135.53-17.48,239-86.48,316.17-197.35c10.01-14.37,18.65-29.7,27.7-44.72
		C972.34,711.31,971.43,708.93,971.32,707.02z M843.75,656.14c-6.57,1.06-13.18,1.93-19.71,3.21
		c-50.55,9.92-101.53,12.58-152.93,10.03c-67.88-3.36-132.33-23.69-197.83-38.9c-22.97-5.34-45.7-12.13-71.05-14.15
		c2.05,3.22,2.55,4.46,3.44,5.3c1.45,1.39,3.04,2.71,4.77,3.72c105.41,61.94,216.91,98.81,341.01,79.41
		C786.65,699.24,820.31,687.78,843.75,656.14z"/>
	<path class="st1" d="M993.72,545.38c-14.49-20.18-27.68-38.57-40.9-56.94c-7.89-10.97-15.8-21.92-23.73-32.86
		c-18.68-25.76-19.04-26.2-44.07-6.49c-12.23,9.63-19.45,4.15-26.76-5.49c-18.79-24.76-38.22-49.06-56.14-74.43
		c-9.31-13.17-15.54-12.16-22.77,0.73c-0.98,1.75-2.4,3.26-3.66,4.85c-5.48,6.94-11.23,15.81-21.31,10.13
		c-10.58-5.96-4.17-15.56-1.53-23.47c7.5-22.41,13.37-45.68,23.7-66.74c13.76-28.06,7.1-51.92-8.4-76.15
		c-6.51,0.99-6.9,7.28-9.14,11.48c-33.45,62.52-66.62,125.19-100.08,187.7c-3.01,5.63-4.47,15.86-11.64,14.64
		c-8.19-1.4-6.57-11.73-7.84-18.71c-0.24-1.33-0.05-2.83-0.6-3.99c-20.09-42.7-4.2-77.84,19.74-114.05
		c40.59-61.39,77.88-124.96,116.69-187.52c11.39-18.36,17.73-19.01,31.77-2.53c6.95,8.16,13.75,17.03,18.1,26.71
		c19.7,43.88,45.96,84.15,68.33,126.51c51.69,97.88,108.4,192.94,161.02,290.28c11.56,21.39,8.49,26.21-16.62,27.32
		c-69.28,3.04-137.38-7.14-205.31-19.18c-87.72-15.54-174.37-36.76-262.99-47.65c-152.33-18.71-303.3-9.67-453.44,19.7
		c-26.5,5.18-52.7,11.85-79.16,17.23c-6.1,1.24-12.51,5.91-18.98,1.16c81.7-140.45,139.93-291.93,210.93-437.24
		c4.57-9.35,9.1-18.78,21.16-19.22c11.79-0.44,18.14,7.57,23.04,16.97c26.54,50.85,56.15,99.98,81.28,151.72
		c20.86,42.94,50.55,81.38,71.2,124.77c2.78,5.84,9.88,11.62,5.17,18.22c-3.67,5.14-11.35,2.68-17.21,2.28
		c-24.92-1.68-49.74-5.46-74.8-4.14c-14.82,0.78-19.02-9.39-23.71-20.49c-11.37-26.85-12.53-27.05-38.09-14.66
		c-10.33,5.01-20.6,10.15-31.02,14.97c-6.03,2.79-12.49,7.02-18.81,1.35c-5.19-4.65-3.84-10.97-2.55-17.1
		c4.73-22.46,8.04-45.31,14.27-67.33c5.32-18.79-2.32-32.04-14.71-49.99c-31.44,72.41-61.37,141.33-92.64,213.33
		c30.54-5.38,58.52-10.72,86.63-15.2c134.5-21.43,267.83-11.53,400.75,14.33c110.82,21.56,218.15,56.93,328.25,81.19
		C961.2,544.49,975.42,549.69,993.72,545.38z"/>
	<path class="st1" d="M634.95,444.62c-27.27-1.92-50.84-5.18-63.2-34.28c-10.72-25.24-25.4-48.79-39.79-75.82
		c-12.35,17.94-18.17,35.4-26.04,55.73c26.77-12.71,31.08,7.88,39.4,22.34c4.99,8.68,2.4,12.84-7.63,11.2
		c-25.95-4.23-52-8.04-77.76-13.25c-17.1-3.46-25.33-33.41-13.39-50.21c20.32-28.59,41.43-56.64,62.95-84.34
		c12.28-15.81,17.63-15.44,28.19,1.95c27.29,44.96,54.28,90.11,80.48,135.71C623.69,423.27,632.77,431.28,634.95,444.62z"/>
	<path class="st2" d="M533.15,191.54c35.1,0.98,77.15,6.5,117.01,23.03c7.51,3.12,21.07,2.21,17.62,16.9
		c-4.48,19.09-18.64,30.14-33.79,26.86c-16.48-3.56-32.76-8.3-49.37-11.01c-56.09-9.15-112.06-7.28-166.55,8.8
		c-22.73,6.71-24.95-7.72-30.2-21.34c-6.51-16.9,5.64-22.29,17.69-25.37C444.85,199.33,484.55,191.3,533.15,191.54z"/>
	<path class="st2" d="M518.72,79.48c-0.01-19.56-0.13-39.12,0.04-58.68c0.08-9.82,1.05-20.16,13.84-20.78
		c13.03-0.62,14.97,9.46,15.02,19.45c0.18,41.14,0.16,82.28,0,123.42c-0.03,9.27-1.92,18.47-13.65,18.73
		c-12.79,0.29-15.11-9.22-15.18-19.42C518.62,121.3,518.73,100.39,518.72,79.48z"/>
	<path class="st2" d="M343.1,76.62c8.11-0.29,11.88,5.42,15.32,11.32c14.89,25.62,29.7,51.29,44.49,76.97
		c4.69,8.15,7.79,16.66-2.37,22.83c-10.76,6.53-17.49,0.56-22.8-8.73c-15.03-26.32-30.58-52.35-45.19-78.9
		C325.72,87.71,331.22,76.85,343.1,76.62z"/>
	<path class="st2" d="M732.08,93.01c-0.77,1.73-1.88,4.91-3.52,7.79c-15.05,26.25-30.19,52.46-45.3,78.67
		c-4.82,8.35-11.25,14.44-21.23,9.08c-10.13-5.44-8.45-14.4-3.76-22.67c15.25-26.91,30.79-53.65,46.23-80.46
		c4.19-7.27,10.16-10.78,18.51-7.86C729.37,79.79,732.73,84.45,732.08,93.01z"/>
	<path class="st2" d="M440.39,86.05c-0.38-3.35-0.96-6.69-1.11-10.05c-0.38-8.83,3.58-14.04,12.71-14.85
		c10.53-0.94,14.67,5.42,15.77,14.39c3.04,24.74,5.81,49.51,8.57,74.28c1.02,9.16-1.74,16.14-11.91,17.8
		c-11.92,1.94-15.26-5.49-16.44-15.31c-2.64-22.07-5.38-44.13-8.08-66.2C440.07,86.08,440.23,86.06,440.39,86.05z"/>
	<path class="st2" d="M630.11,82.58c-2.58,23.31-5.08,46.63-7.77,69.93c-1,8.65-4.05,16.23-14.56,15.63
		c-11.06-0.63-14.77-7.72-13.59-18.05c2.72-23.96,5.54-47.92,8.1-71.9c1.08-10.07,4.99-17.08,16.4-15.33
		C630.06,64.61,631.45,73.1,630.11,82.58z"/>
</g>
</svg>
