<?xml version="1.0" encoding="utf-8"?>
<!-- Generator: Adobe Illustrator 28.2.0, SVG Export Plug-In . SVG Version: 6.00 Build 0)  -->
<svg version="1.1" id="Capa_1" xmlns="http://www.w3.org/2000/svg" xmlns:xlink="http://www.w3.org/1999/xlink" x="0px" y="0px"
	 viewBox="0 0 720 250" style="enable-background:new 0 0 720 250;" xml:space="preserve">
<style type="text/css">
	.st0{fill:#CEC8C0;}
	.st1{fill:#559361;}
	.st2{fill:#FF0000;}
</style>
<g>
	<g>
		<path class="st0" d="M201.56,155.86c-1.23-0.19-1.51,0.83-1.96,1.45c-7.99,10.97-18.32,19.5-29.51,26.81
			c-14.25,9.31-30.42,11.24-47.07,9.98c-14.8-1.11-29.25-5.09-44.16-5.43c-6.86-0.16-13.7-0.52-20.51-1.56
			c-14.04-2.14-23.86-9.55-28.93-22.9c-1.72-4.53-3.15-9.18-4.55-13.83c-1.38-4.58-0.68-5.17,4.03-4.94
			c14.38,0.69,27.48,5.62,40.28,11.72c12.59,6.01,24.32,13.86,37.62,18.28c22.66,7.54,44.67,6.77,65.28-6.57
			c3.59-2.33,6.86-5.14,9.78-8.49c-1.37-0.9-2.05-0.15-2.74,0.24c-15.69,8.86-32.67,10.9-50.3,9.51
			c-16.14-1.27-30.55-7.75-44.74-14.89c-11.6-5.84-23.33-11.32-36.29-13.51c-5.91-1-11.85-1.66-17.84-1.9
			c-1.56-0.06-3.2,0.31-5.06-0.66c1.18-1.1,2.5-1.19,3.71-1.52c20.03-5.48,40.38-9.12,61.12-10.15c12.35-0.61,24.67,0.72,36.99,1.56
			c21.04,1.42,41.74,5.94,62.84,6.9c8.5,0.38,16.96,0.18,25.38-1.11c3.78-0.58,4.95,0.38,4.36,3.8
			c-5.73,33.15-22.35,59.32-52.72,74.24c-36.67,18.01-72.83,15.91-106.66-8.52c-0.98-0.71-2.28-1.29-2.03-2.85
			c0.27-1.69,1.73-1.9,3.04-2.34c13.65-4.54,27.34-2.73,41.08-0.46c11.92,1.97,23.82,4.5,36.03,2.92
			c25.05-3.23,44.17-15.98,58.43-36.47c1.85-2.66,3.45-5.49,5.12-8.27C201.75,156.66,201.59,156.22,201.56,155.86z M177.99,146.46
			c-1.21,0.2-2.44,0.36-3.64,0.59c-9.34,1.83-18.76,2.32-28.26,1.85c-12.54-0.62-24.46-4.38-36.56-7.19
			c-4.24-0.99-8.45-2.24-13.13-2.61c0.38,0.59,0.47,0.82,0.63,0.98c0.27,0.26,0.56,0.5,0.88,0.69
			c19.48,11.45,40.09,18.26,63.02,14.67C167.44,154.43,173.66,152.31,177.99,146.46z"/>
		<path class="st1" d="M205.7,125.99c-2.68-3.73-5.12-7.13-7.56-10.52c-1.46-2.03-2.92-4.05-4.39-6.07
			c-3.45-4.76-3.52-4.84-8.14-1.2c-2.26,1.78-3.59,0.77-4.95-1.01c-3.47-4.57-7.06-9.07-10.37-13.75c-1.72-2.43-2.87-2.25-4.21,0.13
			c-0.18,0.32-0.44,0.6-0.68,0.9c-1.01,1.28-2.08,2.92-3.94,1.87c-1.95-1.1-0.77-2.88-0.28-4.34c1.39-4.14,2.47-8.44,4.38-12.33
			c2.54-5.19,1.31-9.6-1.55-14.07c-1.2,0.18-1.27,1.35-1.69,2.12c-6.18,11.55-12.31,23.14-18.5,34.69
			c-0.56,1.04-0.83,2.93-2.15,2.71c-1.51-0.26-1.21-2.17-1.45-3.46c-0.04-0.25-0.01-0.52-0.11-0.74
			c-3.71-7.89-0.78-14.39,3.65-21.08c7.5-11.34,14.39-23.09,21.56-34.65c2.1-3.39,3.28-3.51,5.87-0.47
			c1.28,1.51,2.54,3.15,3.34,4.94c3.64,8.11,8.49,15.55,12.63,23.38c9.55,18.09,20.03,35.66,29.76,53.64
			c2.14,3.95,1.57,4.84-3.07,5.05c-12.8,0.56-25.39-1.32-37.94-3.54c-16.21-2.87-32.22-6.79-48.6-8.81
			c-28.15-3.46-56.05-1.79-83.8,3.64c-4.9,0.96-9.74,2.19-14.63,3.18c-1.13,0.23-2.31,1.09-3.51,0.21
			c15.1-25.96,25.86-53.95,38.98-80.8c0.84-1.73,1.68-3.47,3.91-3.55c2.18-0.08,3.35,1.4,4.26,3.14c4.9,9.4,10.38,18.48,15.02,28.04
			c3.86,7.94,9.34,15.04,13.16,23.06c0.51,1.08,1.83,2.15,0.95,3.37c-0.68,0.95-2.1,0.49-3.18,0.42c-4.61-0.31-9.19-1.01-13.82-0.77
			c-2.74,0.14-3.51-1.74-4.38-3.79c-2.1-4.96-2.32-5-7.04-2.71c-1.91,0.93-3.81,1.87-5.73,2.77c-1.11,0.52-2.31,1.3-3.48,0.25
			c-0.96-0.86-0.71-2.03-0.47-3.16c0.87-4.15,1.49-8.37,2.64-12.44c0.98-3.47-0.43-5.92-2.72-9.24
			c-5.81,13.38-11.34,26.12-17.12,39.42c5.64-1,10.81-1.98,16.01-2.81c24.86-3.96,49.5-2.13,74.06,2.65
			c20.48,3.98,40.31,10.52,60.66,15C199.7,125.83,202.32,126.79,205.7,125.99z"/>
		<path class="st1" d="M139.4,107.37c-5.04-0.36-9.39-0.96-11.68-6.33c-1.98-4.66-4.69-9.02-7.35-14.01
			c-2.28,3.32-3.36,6.54-4.81,10.3c4.95-2.35,5.74,1.46,7.28,4.13c0.92,1.6,0.44,2.37-1.41,2.07c-4.8-0.78-9.61-1.49-14.37-2.45
			c-3.16-0.64-4.68-6.17-2.47-9.28c3.76-5.28,7.66-10.47,11.63-15.59c2.27-2.92,3.26-2.85,5.21,0.36
			c5.04,8.31,10.03,16.65,14.87,25.08C137.32,103.43,139,104.91,139.4,107.37z"/>
		<path class="st2" d="M120.59,60.6c6.49,0.18,14.26,1.2,21.62,4.26c1.39,0.58,3.89,0.41,3.26,3.12c-0.83,3.53-3.44,5.57-6.24,4.96
			c-3.05-0.66-6.05-1.53-9.12-2.03c-10.37-1.69-20.71-1.35-30.78,1.63c-4.2,1.24-4.61-1.43-5.58-3.94c-1.2-3.12,1.04-4.12,3.27-4.69
			C104.27,62.04,111.61,60.56,120.59,60.6z"/>
		<path class="st2" d="M117.92,39.9c0-3.61-0.02-7.23,0.01-10.84c0.02-1.81,0.19-3.73,2.56-3.84c2.41-0.12,2.77,1.75,2.78,3.59
			c0.03,7.6,0.03,15.21,0,22.81c-0.01,1.71-0.36,3.41-2.52,3.46c-2.36,0.05-2.79-1.7-2.81-3.59
			C117.9,47.62,117.93,43.76,117.92,39.9z"/>
		<path class="st2" d="M85.47,39.37c1.5-0.05,2.2,1,2.83,2.09c2.75,4.74,5.49,9.48,8.22,14.22c0.87,1.51,1.44,3.08-0.44,4.22
			c-1.99,1.21-3.23,0.1-4.21-1.61c-2.78-4.86-5.65-9.67-8.35-14.58C82.26,41.42,83.27,39.41,85.47,39.37z"/>
		<path class="st2" d="M157.35,42.4c-0.14,0.32-0.35,0.91-0.65,1.44c-2.78,4.85-5.58,9.69-8.37,14.54
			c-0.89,1.54-2.08,2.67-3.92,1.68c-1.87-1.01-1.56-2.66-0.7-4.19c2.82-4.97,5.69-9.92,8.54-14.87c0.77-1.34,1.88-1.99,3.42-1.45
			C156.85,39.95,157.47,40.81,157.35,42.4z"/>
		<path class="st2" d="M103.45,41.11c-0.07-0.62-0.18-1.24-0.21-1.86c-0.07-1.63,0.66-2.59,2.35-2.74c1.95-0.17,2.71,1,2.91,2.66
			c0.56,4.57,1.07,9.15,1.58,13.73c0.19,1.69-0.32,2.98-2.2,3.29c-2.2,0.36-2.82-1.01-3.04-2.83c-0.49-4.08-0.99-8.16-1.49-12.23
			C103.39,41.12,103.42,41.11,103.45,41.11z"/>
		<path class="st2" d="M138.51,40.47c-0.48,4.31-0.94,8.62-1.44,12.92c-0.18,1.6-0.75,3-2.69,2.89c-2.04-0.12-2.73-1.43-2.51-3.34
			c0.5-4.43,1.02-8.85,1.5-13.29c0.2-1.86,0.92-3.16,3.03-2.83C138.5,37.15,138.76,38.72,138.51,40.47z"/>
	</g>
	<g>
		<path class="st0" d="M419.34,138.78c0-5.73,0.08-11.47-0.04-17.2c-0.04-2.1,0.59-2.82,2.74-2.79c7.87,0.11,15.74,0.09,23.61,0.01
			c1.78-0.02,2.72,0.49,3.18,2.28c0.65,2.51,1.59,4.94,2.38,7.33c1.34,0.21,1.69-0.77,2.22-1.34c8.79-9.48,19.91-11.45,31.93-9.34
			c11.4,2,18.9,11.25,20.8,24.46c0.53,3.72,0.82,7.44,0.81,11.19c-0.01,17.86-0.06,35.72,0.06,53.58c0.02,2.6-0.61,3.37-3.28,3.32
			c-8.62-0.18-17.24-0.18-25.85,0c-2.73,0.06-3.24-0.84-3.23-3.37c0.11-17.61,0.09-35.22,0.03-52.83c-0.02-4.82-1-9.24-6.18-11.33
			c-7.34-2.97-17.04,3.52-17.04,11.45c0,17.49-0.08,34.97,0.08,52.45c0.03,3.04-0.89,3.69-3.74,3.62c-8.37-0.18-16.74-0.2-25.1,0.01
			c-2.91,0.07-3.56-0.86-3.45-3.58c0.21-5.43,0.06-10.88,0.06-17.53c-10.52,17.57-26.34,22.9-44.37,22.95
			c-18.06,0.05-34-5.1-44.17-21.79c-10.57,14.18-25.25,19.2-41.67,19.71c-15.97,0.5-31.97,0.11-47.96,0.21
			c-2.2,0.01-2.66-0.74-2.65-2.77c0.05-38.84,0.04-77.68,0.03-116.53c0-1.53-0.24-2.94,2.17-2.89c17.72,0.4,35.49-0.94,53.16,0.85
			c10.72,1.09,20.76,4.5,28.76,12.19c13.53,13.02,12.99,32.4-1.14,44.81c-0.84,0.74-1.71,1.45-2.79,2.36
			c2.23,1.67,4.35,3.26,6.43,4.81c0.93-0.39,0.98-1.18,1.14-1.89c4.18-17.91,15.61-28.56,33.27-32.52
			c12.91-2.89,25.79-2.48,38.27,2.39C406.83,124.59,413.85,130.53,419.34,138.78z M395.51,164.54c-0.07-1.37-0.1-2.74-0.23-4.11
			c-1-10.88-7.4-17.53-17.67-18.42c-12.14-1.05-19.84,3.77-22.67,14.21c-1.09,4.03-1.38,8.15-0.82,12.25
			c0.85,6.19,2.74,11.99,8.34,15.66c13.35,8.75,30.66,0.94,32.74-14.74C395.42,167.79,395.42,166.16,395.51,164.54z M270.72,172.44
			c0,4.11-0.01,8.22,0.01,12.33c0.01,1.06-0.31,2.45,1.46,2.4c6.43-0.18,12.93,0.79,19.23-1.5c7.11-2.59,11.69-7.6,11.61-13.07
			c-0.08-5.5-5.17-11.22-11.95-13.36c-1.18-0.37-2.41-0.59-3.63-0.84c-4.68-0.98-9.43-0.48-14.15-0.7c-2.24-0.1-2.7,0.79-2.63,2.8
			C270.82,164.47,270.72,168.45,270.72,172.44z M270.72,125.44c0,3.99-0.03,7.97,0.02,11.96c0.01,1.01-0.49,2.53,1.31,2.52
			c7.06-0.03,14.26,0.9,20.79-2.9c9-5.24,9.83-15.36,1.78-21.93c-2.07-1.69-4.49-2.59-7.07-3.21c-4.93-1.19-9.93-0.49-14.89-0.72
			c-1.82-0.09-1.97,0.91-1.96,2.32C270.75,117.46,270.72,121.45,270.72,125.44z"/>
		<path class="st0" d="M622.86,118.83c9.67,0.46,21.31-0.9,32.88,0.72c13.29,1.86,25.07,6.55,33.21,17.96
			c4.66,6.54,6.65,13.93,6.71,21.82c0.12,15.86-0.02,31.72,0.09,47.58c0.02,2.6-0.66,3.47-3.32,3.35
			c-4.61-0.21-9.27-0.38-13.85,0.03c-4.39,0.4-7.44-0.78-9.2-4.93c-1.16-2.74-2.43-2.69-4.78-0.74
			c-12.81,10.62-35.74,9.78-47.66-1.73c-8.29-8.01-10.7-18.04-7.72-28.9c3.06-11.16,11.44-17.28,22.35-19.85
			c10.25-2.42,20.32-1.69,29.72,3.53c2.25,1.25,2.72,0.73,2.66-1.62c-0.17-6-4.7-10.6-12.01-11.79c-2.33-0.38-4.72-0.52-7.08-0.53
			c-17.6-0.04-35.21,0.03-52.81-0.08c-2.53-0.01-3.46,0.53-3.4,3.26c0.18,8.36,0.04,16.73,0.07,25.1
			c0.03,7.08,3.5,10.49,10.63,10.53c1.12,0.01,2.26,0.04,3.37-0.13c1.55-0.24,2.24,0.18,2.44,1.86c0.93,7.68,2,15.33,2.96,23
			c0.17,1.39,0.74,3.05-1.55,3.5c-14.83,2.91-28.71,1.57-39.93-9.79c-7.32-7.41-9.9-16.87-10.06-27.03
			c-0.14-8.87-0.16-17.74,0.04-26.6c0.07-2.99-0.82-3.81-3.75-3.72c-5.77,0.17-5.12,0.83-5.15-5.15
			c-0.03-5.49,0.08-10.99-0.05-16.48c-0.06-2.35,0.51-3.43,3.11-3.22c2.73,0.22,5.49,0.06,8.24,0.04c5.62-0.04,9.48-2.63,11.42-7.96
			c1.32-3.63,2.59-7.27,3.91-10.89c1.16-3.16,3.15-4.5,6.8-4.33c7.55,0.34,7.56,0.1,7.56,7.71c0,4,0.17,8-0.06,11.99
			c-0.16,2.73,0.53,3.63,3.44,3.57C601.7,118.7,611.32,118.83,622.86,118.83z M651.1,187.51c2.7-0.08,5.48-0.55,7.89-2.36
			c4.13-3.11,4.18-7,0.11-10.17c-4.35-3.4-12.6-3.16-16.72,0.5c-3.28,2.91-3.21,6.39,0.16,9.22
			C644.97,186.72,647.9,187.2,651.1,187.51z"/>
		<path class="st0" d="M354.78,32.37c10.5-4.52,20.8-5.96,31.51-3.56c12.46,2.8,19.28,11.05,19.45,23.83
			c0.12,8.61-0.04,17.23,0.07,25.84c0.03,2.12-0.6,2.95-2.74,2.72c-1.36-0.15-2.75-0.08-4.12-0.02c-4.03,0.18-8.16,0.64-9.64-4.55
			c-12.87,9.42-26.38,6.87-34.53-6.9c0,3.45-0.11,6.1,0.03,8.75c0.11,1.99-0.32,2.91-2.6,2.83c-4.61-0.17-9.24-0.12-13.86-0.02
			c-1.76,0.04-2.36-0.47-2.36-2.3c0.05-22.97,0.05-45.93,0-68.9c0-1.79,0.54-2.37,2.33-2.33c4.62,0.11,9.24,0.15,13.86-0.02
			c2.24-0.08,2.66,0.79,2.63,2.8C354.71,17.66,354.78,24.77,354.78,32.37z M361.65,46.78c-2.19-4.47-4.23-8.62-6.67-13.59
			c0,9.24,0,17.47,0,26.45c2.93-6.71,7.57-10.18,13.94-11.55c6.27-1.35,12.18-0.25,18.09,2.71c0.15-3.74-1.25-6.09-4.11-7.36
			C375.25,40.08,368.36,42.18,361.65,46.78z M379.85,67.77c3.13-0.04,6.11-2.14,6.15-4.35c0.05-2.29-2.97-4.19-6.55-4.12
			c-2.93,0.06-5.6,0.73-6.05,4.15C373.11,65.72,376.44,67.81,379.85,67.77z"/>
		<path class="st0" d="M511.47,164.32c0-14.12,0.07-28.24-0.06-42.35c-0.03-2.65,0.7-3.34,3.31-3.29
			c8.87,0.17,17.74,0.13,26.61,0.02c2.32-0.03,3.2,0.42,3.19,3.01c-0.1,28.48-0.09,56.97-0.01,85.45c0.01,2.47-0.68,3.13-3.12,3.09
			c-8.99-0.14-17.99-0.16-26.99,0.01c-2.64,0.05-3-0.94-2.99-3.22C511.52,192.81,511.47,178.57,511.47,164.32z"/>
		<path class="st0" d="M285.05,21.17c-5,18.91-10.04,37.8-14.93,56.74c-0.64,2.46-1.47,3.46-4.18,3.35
			c-5.61-0.25-11.24-0.21-16.86-0.01c-2.25,0.08-3.02-0.84-3.53-2.78c-5.56-21.47-11.12-42.94-16.83-64.36
			c-0.7-2.61-0.2-3.23,2.38-3.11c3.86,0.17,7.75,0.15,11.61,0.01c2.01-0.07,2.84,0.66,3.27,2.61c3.46,15.95,7,31.89,10.53,47.83
			c0.29,1.32,0.64,2.62,1.13,4.6c1.93-4.51,2.36-8.73,3.29-12.78c2.94-12.87,5.72-25.79,8.44-38.71c0.54-2.59,1.5-3.87,4.39-3.56
			c2.72,0.29,5.49,0.08,8.24,0.09C281.74,14.83,283.85,17.86,285.05,21.17z"/>
		<path class="st0" d="M330.04,44.58c0,11.12-0.07,22.24,0.06,33.36c0.03,2.48-0.4,3.56-3.19,3.4c-4.36-0.25-8.75-0.16-13.12-0.03
			c-1.96,0.06-2.54-0.54-2.53-2.52c0.06-22.86,0.07-45.73,0-68.59c-0.01-2.09,0.77-2.48,2.62-2.43c4.37,0.11,8.75,0.17,13.12-0.02
			c2.45-0.11,3.14,0.63,3.11,3.09C329.96,22.09,330.04,33.33,330.04,44.58z"/>
		<path class="st0" d="M304.54,55.41c0,7.62-0.11,15.24,0.06,22.86c0.06,2.54-0.78,3.15-3.16,3.05c-4.37-0.18-8.75-0.13-13.12-0.01
			c-1.9,0.05-2.59-0.44-2.58-2.48c0.08-15.87,0.08-31.73,0-47.6c-0.01-2.04,0.67-2.53,2.58-2.48c4.37,0.12,8.75,0.16,13.12-0.01
			c2.38-0.1,3.21,0.52,3.16,3.05C304.44,39.66,304.54,47.54,304.54,55.41z"/>
		<path class="st1" d="M545.02,242.22c-3.42-0.1-7.4,0.23-11.37-0.52c-11.07-2.1-20.25-11.83-21.46-22.62
			c-0.33-2.98,0.25-4.4,3.61-4.21c5.96,0.34,11.95-0.29,17.91,0.51c12.1,1.62,21.68,11.5,22.99,23.59c0.28,2.56-0.44,3.4-2.91,3.28
			C551.06,242.12,548.32,242.22,545.02,242.22z"/>
		<path class="st1" d="M285.05,21.17c-1.2-3.31-3.31-6.35-3.04-10.1c4.01-0.76,8.02-0.21,11.85,0.72c5.37,1.3,8.76,4.97,10.3,10.33
			c0.73,2.55,0.39,3.81-2.79,3.93C295.3,26.28,289.76,25.27,285.05,21.17z"/>
	</g>
</g>
</svg>
